<?xml version="1.0" encoding="UTF-8" standalone="no"?>
<svg
   xmlns:dc="http://purl.org/dc/elements/1.1/"
   xmlns:cc="http://creativecommons.org/ns#"
   xmlns:rdf="http://www.w3.org/1999/02/22-rdf-syntax-ns#"
   xmlns:svg="http://www.w3.org/2000/svg"
   xmlns="http://www.w3.org/2000/svg"
   xmlns:sodipodi="http://sodipodi.sourceforge.net/DTD/sodipodi-0.dtd"
   xmlns:inkscape="http://www.inkscape.org/namespaces/inkscape"
   version="1.1"
   id="svg2"
   viewBox="0 0 99.999997 99.999997"
   height="100"
   width="100"
   inkscape:version="0.91 r13725"
   sodipodi:docname="missing.svg">
  <sodipodi:namedview
     pagecolor="#ffffff"
     bordercolor="#666666"
     borderopacity="1"
     objecttolerance="10"
     gridtolerance="10"
     guidetolerance="10"
     inkscape:pageopacity="0"
     inkscape:pageshadow="2"
     inkscape:window-width="1318"
     inkscape:window-height="773"
     id="namedview3346"
     showgrid="false"
     inkscape:zoom="3.425"
     inkscape:cx="-8.2740224"
     inkscape:cy="34.062944"
     inkscape:window-x="0"
     inkscape:window-y="0"
     inkscape:window-maximized="0"
     inkscape:current-layer="flowRoot4146" />
  <defs
     id="defs4" />
  <metadata
     id="metadata7">
    <rdf:RDF>
      <cc:Work
         rdf:about="">
        <dc:format>image/svg+xml</dc:format>
        <dc:type
           rdf:resource="http://purl.org/dc/dcmitype/StillImage" />
        <dc:title></dc:title>
      </cc:Work>
    </rdf:RDF>
  </metadata>
  <g
     transform="translate(0,-952.36223)"
     id="layer1"
     style="fill:#000000">
    <circle
       r="41.69643"
       cy="1002.3622"
       cx="50"
       id="path4144"
       style="fill:none;fill-opacity:1;stroke:#ffffff;stroke-width:10;stroke-miterlimit:4;stroke-dasharray:none;stroke-opacity:1" />
    <g
       transform="matrix(1.4573385,0,0,1.4573385,-13.345837,935.74292)"
       style="font-style:normal;font-weight:normal;font-size:40px;line-height:125%;font-family:sans-serif;letter-spacing:0px;word-spacing:0px;fill:#000000;fill-opacity:1;stroke:none;stroke-width:1px;stroke-linecap:butt;stroke-linejoin:miter;stroke-opacity:1"
       id="flowRoot4146">
      <path
         d="m 46.582031,51.289171 -7.421875,0 0,-0.742188 q 0,-1.894531 0.429688,-3.066406 0.429687,-1.191406 1.269531,-2.167969 0.859375,-0.976562 3.828125,-3.4375 1.582031,-1.289062 1.582031,-2.363281 0,-1.074219 -0.644531,-1.660156 -0.625,-0.605469 -1.914063,-0.605469 -1.386718,0 -2.304687,0.917969 -0.898438,0.917968 -1.152344,3.203125 l -7.578125,-0.9375 q 0.390625,-4.179688 3.027344,-6.71875 2.65625,-2.558594 8.125,-2.558594 4.257812,0 6.875,1.777344 3.554687,2.402343 3.554687,6.40625 0,1.660156 -0.917968,3.203125 -0.917969,1.542968 -3.75,3.769531 -1.972657,1.5625 -2.5,2.519531 -0.507813,0.9375 -0.507813,2.460938 z m -7.675781,1.972656 7.949219,0 0,7.011719 -7.949219,0 0,-7.011719 z"
         style="font-style:normal;font-variant:normal;font-weight:900;font-stretch:normal;font-family:'Arial Black';-inkscape-font-specification:'Arial Black, Heavy';fill:#ffffff;fill-opacity:1;stroke:none;stroke-opacity:1"
         id="path4188" />
    </g>
    <text
       xml:space="preserve"
       style="font-style:normal;font-weight:normal;font-size:40px;line-height:125%;font-family:sans-serif;letter-spacing:0px;word-spacing:0px;fill:#000000;fill-opacity:1;stroke:none;stroke-width:1px;stroke-linecap:butt;stroke-linejoin:miter;stroke-opacity:1"
       x="49.927006"
       y="995.13593"
       id="text4190"
       sodipodi:linespacing="125%"><tspan
         sodipodi:role="line"
         id="tspan4192"
         x="49.927006"
         y="995.13593"></tspan></text>
  </g>
</svg>
